<svg xmlns="http://www.w3.org/2000/svg" version="1.1" xmlns:xlink="http://www.w3.org/1999/xlink" xmlns:svgjs="http://svgjs.dev/svgjs" viewBox="0 0 800 800" opacity="0.59"><defs><linearGradient x1="50%" y1="0%" x2="50%" y2="100%" id="wwwhirl-grad"><stop stop-color="hsl(162, 100%, 58%)" stop-opacity="1" offset="45%"></stop><stop stop-color="hsl(270, 73%, 53%)" stop-opacity="1" offset="100%"></stop></linearGradient></defs><g stroke-width="2" stroke="url(#wwwhirl-grad)" fill="none" stroke-linecap="round"><path d="M-300.0000638094814 479.79661739119797C-257.5758202082524 416.796615643373 -257.5758202082524 300.97843061201803 -172.72733300579455 290.79661214772307C-87.87884580333673 280.6147936834281 -130.30308940456564 416.796615643373 -45.454602202107765 449.25116199831314C39.39388500035017 481.70570835325327 -3.030358600878799 371.6147962080642 81.81812860157913 388.16025121254347C166.66661580403706 404.70570621702274 124.2423722028081 510.97843643810126 209.09085940526597 498.887527011751C293.9393466077238 486.7966175854007 251.51510300649477 365.25115966787985 336.3635902089527 351.88752293349273C421.21207741141063 338.5238861991056 378.7878338101817 459.43298046260804 463.63632101263954 458.79661680858965C548.4848082150975 458.16025315457125 506.06056461386856 344.2511590852715 590.9090518163265 349.97843197143743C675.7575390187844 355.70570485760334 633.3332954175553 462.61479873270025 718.1817826200131 475.97843546708737C803.0302698224712 489.3420722014745 760.6060262212422 379.25116005628536 845.4545134237003 390.0693421745988C930.3030006261581 400.88752429291213 887.878757024929 523.7057095184699 972.727244227387 508.4329818220275C1057.5757314298448 493.1602541255851 1057.5757314298448 398.9784333308569 1099.9999750310737 344.2511590852715 " transform="rotate(122.5, 400, 400)"></path><path d="M-290.0000638788395 478.6566504553918C-248.18188090048528 416.5566487325358 -248.18188090048525 302.3930092016287 -164.5455149437768 292.35664528682366C-80.90914898706836 282.32028137201866 -122.7273319654226 416.5566487325358 -39.09096600871408 448.5475587109768C44.54539994799444 480.53846868941775 2.72721696964021 372.0202838605885 86.36358292634867 388.32937522214667C169.9999488830572 404.6384665837048 128.1817659047029 509.39301494448216 211.81813186141153 497.4748327956512C295.45449781812 485.55665064682023 253.63631483976553 365.74755641383535 337.2726807964741 352.57482877565377C420.9090467531827 339.4021011374722 379.09086377482834 458.5839226257818 462.7272297315368 457.9566498811065C546.3635956882454 457.32937713643116 504.54541270989114 345.04755583955 588.1817786665996 350.6930105416278C671.818144623308 356.3384652437056 629.9999616449537 461.72028634915836 713.6363276016623 474.89301398733994C797.2726935583707 488.06574162552147 755.4545105800166 379.5475567966922 839.0908765367251 390.2111934561726C922.7272424934338 400.8748301156529 880.9090595150794 521.9384698379885 964.5454254717877 506.8839239657809C1048.1817914284964 491.8293780935734 1048.1817914284964 398.993011881627 1089.9999744068505 345.04755583955 " transform="rotate(120.75, 400, 400)"></path><path d="M-280.00006394819763 477.5166758901911C-238.7879415927181 416.316674192304 -238.78794159271808 303.80758016184484 -156.36369688175904 293.91667079652973C-73.93945217079994 284.0257614312146 -115.15157452627952 416.316674192304 -32.727329815320445 447.8439477942458C49.69691489563871 479.37122139618765 8.484792540159106 372.4257638837183 90.90903725111826 388.4984916023553C173.33328196207742 404.5712193209923 132.12115960659781 507.8075858214686 214.54540431755686 496.06213095015687C296.9696490285161 484.31667607884515 255.7575266730364 366.24394553039633 338.1817713839955 353.2621269884203C420.6060160949545 340.2803084464442 379.39389373947506 457.7348571595609 461.81813845043416 457.1166753242287C544.2423831613931 456.49849348889654 503.0302608059136 345.84394496443394 585.4545055168728 351.40758148242367C667.8787502278319 356.97121800041344 626.6666278723523 460.8257663362219 709.0908725833115 473.80758487819793C791.5151172942706 486.789403420174 750.302994938791 379.84394590770455 832.7272396497501 390.3530371083519C915.1514843607092 400.86212830899916 873.9393620052294 520.1712225281124 956.3636067161888 505.3348584801398C1038.7878514271479 490.49849443216715 1038.7878514271479 399.00758280300255 1079.9999737826272 345.84394496443394 " transform="rotate(119, 400, 400)"></path><path d="M-270.0000640175558 476.37676236014664C-229.39400228495094 416.07676068722844 -229.39400228495091 305.22221215721726 -148.18187881974126 295.47675734139204C-66.96975535453157 285.7313025255669 -107.57581708713644 416.07676068722844 -26.3636936219267 447.1403979126711C54.84842984328293 478.20403513811385 14.242368110678115 372.8313049420043 95.45449157588786 388.6676690177202C176.66661504109754 404.5040330934361 136.06055330849267 506.2222177336112 217.27267677370241 494.6494901398188C298.48480023891216 483.07676254602643 257.8787385063072 366.74039568211356 339.0908619715168 353.94948623634303C420.30298543672654 341.1585767905725 379.6969237041218 456.8858527284963 460.9090471693314 456.2767618025073C542.121170634541 455.6676708765182 501.5151089019363 346.6403951244742 582.727232367146 352.1222134583758C663.9393558323557 357.60403179227745 623.3332940997507 459.9313073584417 704.5454175649604 472.72221680421217C785.7575410301702 485.51312624998275 745.1514792975654 380.14039605387313 826.3636027627751 390.4949417956874C907.5757262279849 400.84948753750166 866.9696644953799 518.4040362533926 948.1817879605896 503.78585402965496C1029.3939114257992 489.16767180591717 1029.3939114257992 399.02221475953445 1069.9999731584041 346.6403951244742 " transform="rotate(117.25, 400, 400)"></path><path d="M-260.00006408691394 475.23679542434047C-220.00006297718377 415.8367937763912 -220.00006297718375 306.6367907468279 -140.00006075772347 297.0367904804927C-60.00005853826326 287.43679021415744 -100.0000596479934 415.8367937763912 -20.00005742853307 446.43679462533476C59.99994479092726 477.0367954742783 19.999943681197067 373.2367925945286 99.99994590065734 388.8367930273233C179.99994812011766 404.4367934601181 139.9999470103876 504.6367962399921 219.99994922984786 493.236795923719C299.99995144930824 481.8367956074459 259.99995033957794 367.23679242806907 339.9999525590382 354.6367920785041C419.9999547784986 342.0367917289391 379.9999536687684 456.03679489166996 459.99995588822867 455.436794875024C539.999958107689 454.8367948583781 499.99995699795886 347.4367918787527 579.9999592174191 352.8367920285662C659.9999614368795 358.2367921783798 619.9999603271493 459.03679497489975 699.9999625466094 471.63679532446474C779.9999647660698 484.23679567402974 739.9999636563398 380.43679279428 819.9999658758002 390.6367930772612C899.9999680952603 400.8367933602424 859.9999669855301 516.6367965729112 939.9999692049903 502.23679617340827C1019.9999714244509 487.83679577390546 1019.9999714244509 399.0367933103046 1059.9999725341809 347.4367918787527 " transform="rotate(115.5, 400, 400)"></path><path d="M-250.00006415627206 474.0968208591397C-210.6061236694166 415.59681923615943 -210.60612366941658 308.05136170704407 -131.81824269570572 298.59681599019876C-53.030361721994836 289.14227027335346 -92.42430220885032 415.59681923615943 -13.636421235139437 445.73318370860386C65.15145973857148 475.86954818104823 25.757519251716076 373.64227261765836 104.54540022542699 389.005909407532C183.3332811991379 404.3695461974056 143.9393407122824 503.0513671169785 222.7272216859933 491.8240940782247C301.5151026597042 480.5968210394709 262.1211621728487 367.73318154463004 340.9090431465596 355.3240902912706C419.6969241202705 342.9149990379111 380.302983633415 455.1877294254491 459.0908646071259 454.59682031814634C537.878745580837 454.00591121084346 498.48480509398144 348.2331810036366 577.2726860676923 353.5513629693621C656.0605670414031 358.86954493508756 616.6666265545477 458.14227496196327 695.4545075282587 470.5513662153228C774.2423885019696 482.96045746868225 734.8484480151142 380.7331819052923 813.636328988825 390.7786367294405C892.424209962536 400.82409155358863 853.0302694756806 514.8695492630351 931.8181504493914 500.68773068776716C1010.6060314231022 486.50591211249923 1010.6060314231022 399.05136423168017 1049.9999719099576 348.2331810036366 " transform="rotate(113.75, 400, 400)"></path><path d="M-240.00006422563018 472.95689207030625C-201.21218436164943 415.3568904722948 -201.2121843616494 309.4659784436274 -123.63642463368794 300.156887276272C-46.06066490572647 290.84779610891667 -84.84854476970725 415.3568904722948 -7.272785041745692 445.0296185682401C70.3029746862158 474.70234666418537 31.515094822235028 374.0477984171553 109.09085455019658 389.17507156410784C186.66661427815802 404.3023447110603 147.8787344141773 501.46598377033206 225.45449414213886 490.4114380090976C303.0302538701003 479.356892247863 264.24237400611946 368.2296164375582 341.818133734081 356.0114342804043C419.39389346204246 343.79325212325034 380.60601359806174 454.33870973559544 458.1817733260233 453.75689153763574C535.7575330539847 453.17507333967603 496.9696531900039 349.02961590488775 574.5454129179656 354.26597968652516C652.121172645927 359.50234346816256 613.3332927819463 457.2478007253941 690.9090525099077 469.465982882548C768.4848122378692 481.6841650397019 729.6969323738886 381.02961679267185 807.2726921018502 390.92052615798696C884.8484518298117 400.81143552330207 846.0605719658306 513.1023477295263 923.6363316937923 499.13871097849324C1001.2120914217537 485.1750742274602 1001.2120914217537 399.06598092942295 1039.9999712857343 349.02961590488775 " transform="rotate(112, 400, 400)"></path><path d="M-230.00006429498833 471.8169251345C-191.81824505388226 415.11692356145755 -191.81824505388224 310.88055703323806 -115.45460657167018 301.7169204153726C-39.0909680894581 292.55328379750716 -77.27278733056417 415.11692356145755 -0.9091488483520607 444.3260152809037C75.45448963386008 473.5351070003498 37.27267039275398 374.4532860696796 113.63630887496612 389.344195573711C189.99994735717826 404.23510507774233 151.81812811607222 499.880562276713 228.1817665982843 488.99874379299774C304.5454050804964 478.1169253092825 266.3635858393902 368.7260131835137 342.7272243216024 356.6987401225653C419.0908628038145 344.6714670616169 380.90904356270846 453.4896518987691 457.27268204492054 452.9169246101526C533.6363205271326 452.34419732153594 495.4545012860266 349.8260126591662 571.8181397682387 354.98055825671554C648.1817782504509 360.13510385426486 609.9999590093447 456.3532883418521 686.3635974915568 468.3805614028005C762.727235973769 480.40783446374894 724.5454167326629 381.3260135330787 800.909055214875 391.0623774395608C877.2726936970871 400.7987413460428 839.0908744559811 511.33510804904483 915.4545129381931 497.58965312224666C991.8181514204052 483.8441981954485 991.8181514204052 399.0805594801931 1029.9999706615113 349.8260126591662 " transform="rotate(110.25, 400, 400)"></path><path d="M-220.00006436434646 470.67700397506104C-182.4243057461151 414.87700242698753 -182.42430574611507 312.29518139921595 -107.2727885096524 303.27699933084045C-32.121271273189734 294.2588172624649 -69.6970298914211 414.87700242698753 5.454487345041628 443.6224577699345C80.60600458150435 472.3679131128815 43.03024596327299 374.85881949857117 118.18176319973571 389.51336535968136C193.33328043619838 404.16791122079155 155.75752181796702 498.2951865594611 230.90903905442974 487.58609535326514C306.06055629089246 476.8770041470692 268.484797672661 369.2224557058364 343.6363149091237 357.38609174109354C418.78783214558644 345.54972777635066 381.2120735273551 452.64063983831 456.3635907638178 452.0770034590365C531.5151080002806 451.51336707976304 493.93934938204916 350.62245518981194 569.0908666185119 355.69518260327317C644.2423838549746 360.7679100167344 606.6666252367431 455.4588217346774 681.8181424732059 467.29518569942024C756.9696597096686 479.1315496641631 719.3939010914373 381.62245604985276 794.5454183279 391.20427449750173C869.6969355643628 400.78609294515076 832.1211769461313 509.5679141449305 907.272694182594 496.04064104236727C982.4242114190567 482.5133679398039 982.4242114190567 399.0951838073304 1019.999970037288 350.62245518981194 " transform="rotate(108.5, 400, 400)"></path><path d="M-210.0000644337046 469.53702940986034C-173.03036643834793 414.63702788675573 -173.03036643834793 313.7097523594321 -99.09097044763465 304.8370248405465C-25.151574456921367 295.9642973216609 -62.12127245227802 414.63702788675573 11.818123538435316 442.9188468532036C85.75751952914862 471.2006658196514 48.78782153379194 375.26429952170093 122.72721752450525 389.68248173989C196.66661351521861 404.1006639580791 159.69691551986193 496.7097574364475 233.63631151057518 486.17339350777087C307.57570750128855 475.6370295790942 270.60600950593175 369.7188448223974 344.5454054966451 358.0733899538601C418.4848014873585 346.4279350853227 381.5151034920018 451.79157437208914 455.45449948271516 451.23702890215884C529.3938954734284 450.6824834322285 492.42419747807173 351.4188443146959 566.3635934687851 356.409753544069C640.3029894594985 361.40066277344215 603.3332914641417 454.5643017217409 677.2726874548549 466.2097565902783C751.2120834455682 477.85521145881563 714.2423854502118 381.9188451608651 788.1817814409251 391.34611814968105C862.1211774316382 400.773391138497 825.1514794362815 507.80066683505447 899.0908754269949 494.4915755567261C973.0302714177083 481.18248427839774 973.0302714177083 399.109754728706 1009.9999694130647 351.4188443146959 " transform="rotate(106.75, 400, 400)"></path><path d="M-200.00006450306273 468.39707773284323C-163.63642713058078 414.3970762347076 -163.63642713058076 315.1243462078318 -90.90915238561689 306.3970732384362C-18.181877640653028 297.6698002690405 -54.545515013134946 414.3970762347076 18.181759731828947 442.21525882465625C90.9090344767929 470.0334414146049 54.54539710431095 375.6698024330143 127.27267184927484 389.8516210082822C199.99994659423874 404.0334395835502 163.6363092217568 495.1243512016175 236.36358396672074 484.7607145504601C309.09085871168463 474.39707789930276 272.7272213392025 370.21525682714196 345.4544960841665 358.76071105481014C418.1817708291304 347.30616528247833 381.8181334566485 450.9425317940519 454.5454082016123 450.39707723346464C527.2726829465763 449.85162267287745 490.9090455740943 352.2152563277634 563.6363203190582 357.12434737304847C636.3635950640222 362.03343841833356 599.9999576915401 453.66980459698806 672.7272324365041 465.1243503693198C745.454507181468 476.5788961416516 709.0908698089861 382.215257160061 781.8181445539501 391.4879846900439C854.5454192989141 400.7607122200268 818.181781926432 506.0334424133621 890.9090566713958 492.94253295926853C963.6363314163598 479.85162350517504 963.6363314163598 399.12434853826517 999.9999687888417 352.2152563277634 " transform="rotate(105, 400, 400)"></path><path d="M-190.00006457242085 467.2571260558261C-154.24248782281362 414.1571245826594 -154.2424878228136 316.5389400562316 -82.72733432359911 307.95712163632584C-11.212180824384632 299.3753032164201 -46.96975757399187 414.1571245826594 24.545395925222635 441.5116707961089C96.06054942443717 468.86621700955845 60.3029726748299 376.07530534432766 131.81812617404438 390.0207602766745C203.33327967325891 403.9662152090213 167.5757029236517 493.5389449667874 239.09085642286618 483.3480355931494C310.6060099220806 473.1571262195113 274.8484331724734 370.7116688318866 346.3635866716879 359.4480321557603C417.87874017090235 348.18439547963396 382.12116342129514 450.09348921601463 453.63631692050967 449.55712556477056C525.1514704197242 449.0207619135264 489.393893670117 353.01166834083097 560.9090471693314 357.83894120202797C632.4242006685461 362.6662140632249 596.6666239189385 452.7753074722352 668.1817774181532 464.03894414836145C739.6969309173677 475.3025808244878 703.9393541677604 382.51166915925694 775.4545076669751 391.6298512304068C846.9696611661896 400.74803330155663 811.212084416582 504.2662179916697 882.7272379157966 491.393490361811C954.2423914150113 478.52076273195246 954.2423914150113 399.13894234782435 989.9999681646184 353.01166834083097 " transform="rotate(103.25, 400, 400)"></path><path d="M-180.000064641779 466.117174378809C-144.84854851504645 413.9171729306112 -144.84854851504642 317.95353390463134 -74.54551626158133 309.5171700342155C-4.242484008116264 301.0808061637997 -39.394000134848824 413.9171729306112 30.909032118616324 440.8080827675616C101.21206437208139 467.698992604512 66.06054824534885 376.480808255641 136.36358049881397 390.18989954506674C206.6666127522791 403.8989908344924 171.51509662554656 491.95353873195745 241.81812887901162 481.9353566358387C312.1211611324768 471.9171745397199 276.96964500574416 371.20808083663115 347.2726772592092 360.1353532567104C417.5757095126744 349.06262567678965 382.42419338594186 449.2444466379774 452.7272256394069 448.7171738960764C523.0302578928721 448.18990115417546 487.87874176613946 353.8080803538985 558.1817740196046 358.5535350310074C628.4848062730697 363.2989897081163 593.333290146337 451.88081034748234 663.6363223998022 462.9535379274031C733.9393546532674 474.02626550732384 698.7878385265349 382.80808115845286 769.0908707799999 391.77171777076967C839.393903033465 400.7353543830865 804.2423869067325 502.4989935699772 874.5454191601975 489.8444477643535C944.8484514136626 477.1899019587298 944.8484514136626 399.15353615738354 979.9999675403951 353.8080803538985 " transform="rotate(101.5, 400, 400)"></path><path d="M-170.00006471113713 464.97723796058096C-135.45460920727928 413.67723653735203 -135.45460920727925 319.3681430118201 -66.36369819956357 311.0772336908942C2.727212808152103 302.7863243699684 -31.81824269570575 413.67723653735203 37.272668312009955 440.1045099978033C106.36357931972572 466.5317834582546 71.8181238158678 376.88632642574345 140.90903482358357 390.359054072248C209.99994583129927 403.83178171875255 175.45449032744142 490.3681477559165 244.54540133515718 480.52269293731695C313.6363123428729 470.67723811871747 279.0908568390149 371.7045081001648 348.1817678467306 360.82268961644957C417.2726788544463 349.94087113273434 382.7272233505885 448.3954193187292 451.8181343583042 447.87723748617134C520.9090453660199 447.3590556536135 486.36358986216214 354.6045076257551 555.4545008698777 359.2681441187759C624.5454118775936 363.93178061179674 589.9999563737357 450.9863284815185 659.0908673814513 461.8681469652338C728.181778389167 472.74996544894896 693.6363228853093 383.10450841643785 762.7272338930251 391.9135995699216C831.8181449007407 400.7226907234054 797.2726893968829 500.73178440707386 866.3636004045984 488.29542042568505C935.4545114123143 475.8590564442962 935.4545114123143 399.1681452257318 969.9999669161721 354.6045076257551 " transform="rotate(99.75, 400, 400)"></path><path d="M-160.00006478049528 463.8372786541693C-126.0606698995121 413.43727725590935 -126.06066989951208 320.78272923082534 -58.18188013754582 312.6372744593894C9.696909624420499 304.4918196879534 -24.242485256562702 413.43727725590935 43.63630450540364 439.40091433986146C111.51509426736993 465.36455142381357 77.57569938638682 377.2918217076623 145.4544891483531 390.5281857112457C213.33327891031945 403.7645497148292 179.39388402933628 488.7827338916919 247.27267379130262 479.11000635061174C315.15146355326897 469.43727880953156 281.2120686722857 372.2009124755148 349.090858434252 361.51000308800513C416.9696481962184 350.81909370049544 383.0302533152352 447.5463691112974 450.90904307720155 447.03727818808267C518.7878328391679 446.52818726486794 484.8484379581846 355.40091200942817 552.727227720151 359.9827303183609C620.6060174821173 364.5645486272936 586.6666226011341 450.09182372737115 654.5454123631004 460.78273311488084C722.4242021250667 471.47364250239053 688.4848072440836 383.40091278623925 756.36359700605 392.05545848088997C824.2423867680163 400.7100041755407 790.302991887033 498.9645523559869 858.1817816489993 486.74637019883295C926.0605714109656 474.528188041679 926.0605714109656 399.18273140589645 959.9999662919488 355.40091200942817 " transform="rotate(98, 400, 400)"></path><path d="M-150.0000648498534 462.69731171836315C-116.66673059174494 413.1973103450721 -116.66673059174491 322.19730782043604 -50.000062075528035 314.19730759849C16.666606440688838 306.19730737654396 -16.666727817419627 413.1973103450721 49.99994069879733 438.69731105252504C116.66660921501426 464.197311759978 83.33327495690577 377.6973093601866 149.9999434731227 390.6973097208489C216.66661198933963 403.6973100815112 183.3332777312312 487.1973123980729 249.99994624744807 477.697312134512C316.66661476366505 468.197311870951 283.3332805055565 372.69730922147033 349.9999490217733 362.1973089301662C416.6666175379903 351.697308638862 383.3332832798818 446.6973112744711 449.9999517960988 446.19731126059946C516.6666203123157 445.69731124672785 483.3332860542073 356.19730876370664 549.9999545704242 360.6973088885513C616.6666230866412 365.1973090133959 583.3332888285325 449.19731134382926 649.9999573447495 459.69731163513336C716.6666258609664 470.1973119264376 683.333291602858 383.6973095266461 749.9999601190749 392.19730976246376C816.666628635292 400.6973099982814 783.3332943771833 497.1973126755054 849.9999628934002 485.1973123425864C916.6666314096171 473.1973120096673 916.6666314096171 399.1973099566666 949.9999656677255 356.19730876370664 " transform="rotate(96.25, 400, 400)"></path><path d="M-140.000057289817 461.5573829295296C-107.27278365458324 412.9573815812075 -107.27278365458322 323.6119245570194 -41.81823638411572 315.75737888456325C23.636310886351765 307.90283321210717 -9.09096274888202 412.9573815812075 56.363584521585494 437.99374591216133C121.81813179205301 463.03011024311513 89.09085815681931 378.10283515968354 154.54540542728682 390.8664718774247C219.99995269775434 403.6301085951659 187.27267906252058 485.61192905142644 252.7272263329881 476.28465606538475C318.18177360345567 466.9573830793432 285.4544999682218 373.1937441143985 350.90904723868925 362.88465291929987C416.36359450915677 352.57556172420124 383.63632087392307 445.8482915846174 449.0908681443906 445.3573824800889C514.5454154148582 444.8664733755604 481.8181417796243 356.9937436649578 547.2726890500919 361.4119256057144C612.7272363205593 365.8301075464709 579.9999626853256 448.30283710725996 645.4545099557931 458.6119283023586C710.9090572262606 468.9210194974572 678.181783591027 383.9937444140256 743.6363308614946 392.33919919101027C809.090878131962 400.68465396799485 776.3636044967282 495.4301111419966 841.8181517671956 483.6482926333124C907.2726990376632 471.8664741246282 907.2726990376632 399.21192665440935 939.9999726728968 356.9937436649578 " transform="rotate(94.5, 400, 400)"></path><path d="M-130.00005735917514 460.417423623118C-97.87884434681607 412.7174222997648 -97.87884434681607 325.02651077602457 -33.63641832209797 317.3174196530584C30.606007702620133 309.6083285300922 -1.5152053097389455 412.7174222997648 62.72722071497918 437.29015025421944C126.96964673969734 461.86287820867415 94.84843372733826 378.5083304416024 159.09085975205636 391.03560351642244C223.33328577677452 403.56287659124246 191.21207276441544 484.0265151872019 255.4544987891336 474.87196947867955C319.69692481385164 465.7174237701572 287.57571180149256 373.69014848974854 351.81813782621066 363.57196639085544C416.0605638509288 353.45378429196234 383.9393508385698 444.9992413771856 448.18177686328784 444.51742318200024C512.424202888006 444.03560498681486 480.302989875647 357.7901480486308 544.545415900365 362.1265118052993C608.7878419250832 366.46287556196773 576.666628912724 447.40833235311254 640.9090549374422 457.5265144520057C705.1514809621603 467.64469655089874 673.0302679498013 384.290148783827 737.2726939745195 392.4810581019786C801.5151199992375 400.67196742013016 769.3939069868784 493.66287909090966 833.6363330115964 482.09924240646035C897.8787590363147 470.5356057220111 897.8787590363147 399.226512834574 929.9999720486737 357.7901480486308 " transform="rotate(92.75, 400, 400)"></path><path d="M-120.00005742853327 459.27747194610083C-88.48490503904891 412.4774706477166 -88.4849050390489 326.4411046244243 -25.454600260080213 318.8774680509481C37.57570451888847 311.3138314774718 6.06055212940413 412.4774706477166 69.09085690837287 436.58656222567214C132.1211616873416 460.6956538036277 100.60600929785721 378.91383335291573 163.63631407682595 391.20474278481464C226.6666188557947 403.49565221671355 195.1514664663103 482.44110895237185 258.18177124527904 473.4592905213688C321.2120760242478 464.4774720903658 289.6969236347633 374.1865604944931 352.72722841373206 364.25928749180554C415.75753319270086 354.33201448911797 384.2423808032165 444.15019879914837 447.2726855821852 443.6774715133061C510.3029903611539 443.20474422746383 478.78783797166955 358.5865600616984 541.8181427506382 362.84110563427873C604.848447529607 367.09565120685915 573.3332951401226 446.51383522835965 636.3635999190913 456.4411082310472C699.39390469806 466.36838123373485 667.8787523085756 384.58656078302295 730.9090570875444 392.62292464234145C793.9393618665131 400.65928850165994 762.4242094770287 491.89565466921715 825.4545142559975 480.55019980900283C888.4848190349662 469.2047449487884 888.4848190349662 399.2411066441332 919.9999714244505 358.5865600616984 " transform="rotate(91, 400, 400)"></path><path d="M-110.00002698031328 458.13751263968925C-79.09093521370362 412.2375113662739 -79.0909352137036 327.85569084342956 -17.272751680484305 320.4375088194432C44.54543185273499 313.0193267954569 13.63634008612533 412.2375113662739 75.45452361934466 435.88296656773025C137.27270715256395 459.52842176918665 106.36361538595435 379.3193286348346 168.18179891917367 391.37387442381237C229.999982452393 403.4284202127901 199.09089068578328 480.8556950881473 260.90907421900266 472.0466039346636C322.727257752222 463.2375127811798 291.8181659856122 374.68296486984315 353.6363495188316 364.9466009633611C415.4545330520509 355.21023705687907 384.54544128544126 443.3011485917166 446.3636248186606 442.83751221521743C508.1818083518799 442.3738758387183 477.27271658527025 359.3829644453714 539.0909001184896 363.55569183386365C600.9090836517089 367.72841922235597 569.9999918850991 445.6193304742123 631.8181754183184 455.35569438069433C693.6363589515379 465.09205828717637 662.7272671849282 384.88296515282434 724.5454507181477 392.7647835533098C786.3636342513668 400.64660195379525 755.4545424847572 490.12842261813023 817.2727260179764 479.00114958215073C879.0909095511956 467.87387654617123 879.0909095511956 399.25569282429785 910.0000013178055 359.3829644453714 " transform="rotate(89.25, 400, 400)"></path><path d="M-100.00002704967142 456.9975609626721C-69.69699590593645 411.9975597142257 -69.69699590593643 329.27028469182926 -9.090933618466522 321.9975572173329C51.51512866900336 314.7248297428365 21.212097525268405 411.9975597142257 81.81815981273832 435.17937853918295C142.42422210020828 458.3611973641402 112.12119095647324 379.724831546148 172.7272532439432 391.5430136922046C233.33331553141318 403.3611958382612 203.0302843876782 479.2702888533173 263.6363466751481 470.6339249773528C324.242408962618 461.9975611013883 293.93937781888303 375.1793768745877 354.545440106353 365.6339220643112C415.15150239382285 356.0884672540347 384.84847125008787 442.4521060136793 445.45453353755784 441.9975605465233C506.0605958250278 441.5430150793673 475.7575646812928 360.1793764584389 536.3636269687628 364.27028566284315C596.9696892562326 368.3611948672474 566.6666581124977 444.72483334945946 627.2727203999675 454.27028815973597C687.8787826874376 463.8157429700125 657.5757515437026 385.17937715202027 718.1818138311726 392.9066500936727C778.7878761186425 400.6339230353251 748.4848449749073 488.3611981964378 809.0909072623774 477.4521069846932C869.6969695498474 466.5430157729486 869.6969695498474 399.27028663385704 900.000000693582 360.1793764584389 " transform="rotate(87.5, 400, 400)"></path><path d="M-90.00002711902955 455.8576169150495C-60.30305659816929 411.757615691572 -60.30305659816926 330.68488616962355 -0.9091155564487678 323.5576132446171C58.48482548527173 316.43034031961065 28.78785496441145 411.757615691572 88.181796006132 434.4757981400301C147.5757370478525 457.1939805884882 117.87876652699225 380.1303420868559 177.2727075687128 391.71216058999136C236.66664861043336 403.29397909312684 206.96967808957305 477.6848902478818 266.3636191312936 469.2212536494366C325.7575601730141 460.7576170509915 296.0605896521538 375.6757965087268 355.4545306938744 366.32125079465584C414.8484717355948 356.96670508058486 385.1515012147347 441.6030710650366 444.5454422564552 441.1576165072237C503.9393832981757 440.7121619494108 474.2424127773154 360.975796100901 533.6363538190359 364.9848871212171C593.0302948607564 368.99397814153326 563.3333243398961 443.8303438541011 622.7272653816167 453.1848895681721C682.1212064233373 462.53943528224306 652.424235902477 385.4757967806107 711.8181769441975 393.04852426343007C771.2121179859181 400.6212517462494 741.5151474650577 486.59398140413987 800.9090885067783 475.9030720166302C860.3030295484988 465.2121626291205 860.3030295484988 399.28488807281076 890.000000069359 360.975796100901 " transform="rotate(85.75, 400, 400)"></path><path d="M-80.00002718838769 454.71765760863786C-50.90911729040212 411.51765641012935 -50.909117290402094 332.0994723886288 7.2727025055689865 325.1176540131122C65.4545223015401 318.1358356375957 36.36361240355453 411.51765641012935 94.54543219952566 433.7722024820883C152.72725199549677 456.02674855404723 123.63634209751126 380.5358373687747 181.8181618934824 391.8812922289891C239.99998168945348 403.22674708920346 210.90907179146797 476.09947638365725 269.09089158743905 467.8085670627314C327.27271138341024 459.51765774180546 298.18180148542456 376.17220088407686 356.3636212813957 367.0085642662114C414.54544107736683 357.84492764834596 385.4545311793813 440.7540208576048 443.63635097535234 440.31765720913506C501.8181707713235 439.88129356066526 472.72726087333797 361.772200484574 530.9090806693091 365.6994733208021C589.0909004652802 369.62674615703014 559.9999905672946 442.93583909995374 618.1818103632658 452.0994757178192C676.3636301592368 461.26311233568464 647.2727202612514 385.7722011504121 705.4545400572226 393.19038317439845C763.6363598531937 400.6085651983847 734.545449955208 484.82674935305295 792.727269751179 474.35402178977813C850.9090895471503 463.8812942265033 850.9090895471503 399.2994742529754 879.9999994451359 361.772200484574 " transform="rotate(84, 400, 400)"></path><path d="M-69.99999674016769 453.5777135610153C-41.51514746505683 411.2777123874757 -41.5151474650568 333.514073866423 15.454551085164894 326.6777100403964C72.42424963538659 319.8413462143698 43.93940036027573 411.2777123874757 100.90909891049745 433.06862208293546C157.87879746071917 454.8595317783953 129.39394818560834 380.9413479094826 186.36364673583006 392.0504391267758C243.33334528605178 403.1595303440691 214.84849601094095 474.5140777782218 271.81819456116267 466.3958957348152C328.78789311138445 458.2777136914086 300.30304383627345 376.66862051821596 357.2727423864952 367.69589299655604C414.242440936717 358.7231654748961 385.75759166160606 439.9049859089621 442.72729021182784 439.4777131698354C499.6969887620496 439.05044043070876 471.21213948693867 362.5686201270361 528.1818380371604 366.4140747791761C585.1515365873822 370.259529431316 556.6666873122712 442.04134960459544 613.636385862493 451.0140771262553C670.6060844127146 459.9868046479153 642.1212351376039 386.0686207790026 699.0909336878257 393.33225734415583C756.0606322380473 400.5958939093091 727.5757829629365 483.0595325607551 784.5454815131582 472.80498682171515C841.5151800633798 462.5504410826752 841.5151800633798 399.31407569192913 870.0000293384907 362.5686201270361 " transform="rotate(82.25, 400, 400)"></path><path d="M-59.999996809525825 452.4377695133927C-32.12120815728966 411.037768364822 -32.121208157289644 334.9286753442173 23.636369147182677 328.23776606768064C79.39394645165495 321.5468567911439 51.51515779941877 411.037768364822 107.27273510389114 432.3650416837827C163.03031240836344 453.6923150027433 135.1515237561273 381.3468584501905 190.9091010605996 392.2195860245626C246.66667836507196 403.0923135989347 218.7878897128358 472.92867917278625 274.54546701730817 464.983224406899C330.30304432178053 457.03776964101166 302.42425566954427 377.16504015235506 358.1818329740166 368.3832217269007C413.9394102784888 359.6014033014463 386.06062162625267 439.05595096031936 441.8181989307252 438.63776913053584C497.5757762351974 438.21958730075227 469.69698758296124 363.3650397694982 525.4545648874335 367.12867623755005C581.212142191906 370.89231270560197 553.3333535396697 441.1468601092371 609.090930844142 449.92867853469147C664.8485081486143 458.71049696014586 636.9697194963783 386.365040407593 692.7272968008506 393.4741315139132C748.4848741053229 400.58322262023347 720.6060854530866 481.2923157684571 776.3636627575592 471.2559518536521C832.1212400620315 461.2195879388471 832.1212400620315 399.32867713088285 860.0000287142675 363.3650397694982 " transform="rotate(80.5, 400, 400)"></path><path d="M-49.99999687888396 451.2978178363756C-22.72726884952249 410.79781671277385 -22.727268849522474 336.3432691926171 31.81818720920043 329.7978144655703C86.36364326792335 323.2523597385235 59.09091523856188 410.79781671277385 113.6363712972848 431.66145365523533C168.18182735600772 452.5250905976969 140.90909932664624 381.75236136150386 195.4545553853692 392.38872529295486C250.00001144409214 403.0250892244058 222.72728341473066 471.34327293795627 277.2727394734536 463.5705454495883C331.81819553217656 455.79781796122023 304.54546750281503 377.66145215709963 359.090923561538 369.0705428278508C413.63637962026087 360.4796334986019 386.36365159089945 438.2069083822821 440.90910764962234 437.79781746184165C495.4545637083453 437.3887265414013 468.1818356789838 364.16145178256573 522.7272917377068 367.8432700665295C577.2727477964297 371.5250883504933 550.0000197670682 440.2523629844842 604.5454758257911 448.84327231373305C659.090931884514 457.4341816429819 631.8182038551527 386.66145240678895 686.3636599138757 393.61599805427613C740.9091159725986 400.5705437017633 713.636387943237 479.5250913467647 768.1818440019599 469.7069092561946C822.7273000606829 459.88872716562446 822.7273000606829 399.34327094044204 850.0000280900442 364.16145178256573 " transform="rotate(78.75, 400, 400)"></path><path d="M-39.9999969482421 450.15783564178037C-13.333329541755319 410.5578345431475 -13.333329541755305 337.75783252343865 40.000005271218185 331.35783234588183C93.33334008419169 324.957832168325 66.66667267770492 410.5578345431475 120.00000749067848 430.9578351091099C173.333342303652 451.35783567507224 146.66667489716525 382.15783375523915 200.00000971013878 392.55783404376893C253.33334452311232 402.9578343322988 226.66667711662558 469.7578361855482 280.0000119295991 462.1578359746994C333.33334674257264 454.5578357638507 306.6666793360858 378.15783364426613 360.0000141490593 369.7578334112228C413.3333489620329 361.3578331781795 386.6666815555461 437.3578352866667 440.0000163685197 436.95783527556944C493.3333511814932 436.55783526447215 466.6666837750065 364.95783327805515 520.00001858798 368.5578333779309C573.3333534009536 372.1578334778066 546.6666859944667 439.35783534215324 600.0000208074403 447.75783557519657C653.3333556204137 456.1578358082399 626.666688213927 386.95783388840675 680.0000230269006 393.75783407706086C733.3333578398741 400.557834265715 706.6666904333873 477.75783640749415 760.0000252463608 468.1578361411589C813.3333600593344 458.5578358748237 813.3333600593344 399.3578342324231 840.0000274658211 364.95783327805515 " transform="rotate(77, 400, 400)"></path><path d="M-29.999997017600236 449.0178992235523C-3.9393902339881635 410.3178981498884 -3.9393902339881492 339.1724416306275 48.18182333323597 332.91789600256055C100.30303690046009 326.6633503744937 74.242430116848 410.3178981498884 126.36364368407214 430.2542623393516C178.48485725129626 450.19062652881485 152.42425046768423 382.5633519253415 204.54546403490838 392.72698857095025C256.6666776021325 402.89062521655893 230.60607081852044 468.17244520950715 282.72728438574455 460.74517227617775C334.8484979529687 453.31789934284825 308.7878911693566 378.6542609077997 360.90910473658073 370.4451697709619C413.0303183038049 362.23607863412417 386.9697115201928 436.50880796741853 439.09092508741696 436.1178988656643C491.2121386546411 435.7269897639102 465.15153187102896 365.75426054991175 517.2727454382531 369.2724424656994C569.3939590054773 372.790624381487 543.3333522218651 438.4633534761894 595.4545657890893 446.6724446130272C647.5757793563134 454.881535749865 621.5151725727014 387.25426114639174 673.6363861399255 393.8997158762128C725.7575997071497 400.5451706060339 699.6969929235377 475.99062724459077 751.8182064907618 466.60880880249044C803.9394200579858 457.2269903603901 803.9394200579858 399.37244330077135 830.0000268415979 365.75426054991175 " transform="rotate(75.25, 400, 400)"></path><path d="M-19.99999708695836 447.8779628053243C5.454549073779006 410.0779617566293 5.45454907377902 340.5870507378163 56.36364139525375 334.47795965923933C107.27273371672845 328.36886858066237 81.81818755599107 410.0779617566293 132.7272798774658 429.5506895695934C183.63637219894053 449.02341738255745 158.18182603820318 382.968870095444 209.09091835967797 392.8961430981316C260.0000106811527 402.82341610081914 234.5454645204153 466.58705423346623 285.45455684189005 459.3325085776561C336.3636491633648 452.07796292184594 310.9091030026274 379.1506881713334 361.8181953241021 371.13250613070113C412.7272876455769 363.11432409006886 387.2727414848395 435.65978064817034 438.1818338063142 435.2779624557593C489.090926127789 434.8961442633482 463.63637996705165 366.5506878217684 514.5454722885264 369.98705155346795C565.4545646100011 373.4234152851675 540.0000184492636 437.56887161022564 590.9091107707384 445.5870536508579C641.8182030922131 453.6052356914902 616.3636569314758 387.55068840437673 667.2727492529506 394.04159767536476C718.1818415744252 400.5325069463528 692.7272954136879 474.22341808168744 743.6363877351625 465.059781463822C794.5454800566373 455.89614484595654 794.5454800566373 399.3870523691196 820.0000262173746 366.5506878217684 " transform="rotate(73.5, 400, 400)"></path><path d="M-9.999997156316496 446.73801112830716C14.848488381546176 409.8380101045811 14.84848838154619 342.001644586216 64.5454594572715 336.038008057129C114.24243053299682 330.0743715280419 89.39394499513415 409.8380101045811 139.0909160708595 428.847101541046C188.7878871465848 447.85619297751094 163.93940160872216 383.37437300675737 213.6363726844475 393.0652823665238C263.33334376017285 402.75619172629024 238.4848582223102 465.00164799863626 288.18182929803555 457.91982962034535C337.87880037376084 450.83801124205445 313.03031483589814 379.64710017607797 362.7272859116235 371.81982723165123C412.4242569873488 363.9925542872245 387.5757714494862 434.8107380701331 437.27274252521147 434.43801078706514C486.96971360093676 434.0652835039972 462.1212280630742 367.34709983483594 511.8181991387995 370.7016453824474C561.5151702145248 374.05619093005885 536.6666846766622 436.67437448547275 586.3636557523874 444.50164742989955C636.0606268281128 452.32892037432623 611.2121412902502 387.84710040357265 660.9091123659756 394.1834642157276C710.606083441701 400.51982802788257 685.7575979038382 472.45619365999505 735.4545689795635 463.5107388663645C785.1515400552889 454.5652840727339 785.1515400552889 399.4016461786788 810.0000255931515 367.34709983483594 " transform="rotate(71.75, 400, 400)"></path><path d="M0.0000027743253667722456 445.59804800719826C24.242427689313345 409.5980470084411 24.24242768931336 343.41622699052397 72.72727751928926 337.59804501092685C121.21212734926519 331.77986303132974 96.96970243427722 409.5980470084411 145.45455226425315 428.1435020684069C193.93940209422908 446.6889571283727 169.69697717924112 383.77986447397893 218.18182700921705 393.23441019082424C266.66667683919303 402.68895590766954 242.424251924205 463.4162303197144 290.909101754181 456.5071392189428C339.3939515841569 449.5980481181712 315.1515266691689 380.14350073673074 363.63637649914483 372.50713688850954C412.1212263291208 364.8707730402883 387.87880141413285 433.96168404800403 436.3636512441088 433.5980476742792C484.84850107408477 433.23441130055437 460.6060761590968 368.1435004038117 509.09092598907273 371.41622776733504C557.5757758190487 374.6889551308584 533.3333509040606 435.77986591662807 581.8182007340365 443.4162297648493C630.3030505640124 451.0525936130705 606.0606256490246 388.1435009586767 654.5454754790005 394.32531931199867C703.0303253089764 400.5071376653206 678.7879003939885 470.68895779421075 727.2727502239644 461.9616848248151C775.7576000539403 453.23441185541947 775.7576000539403 399.4162285441462 800.0000249689283 368.1435004038117 " transform="rotate(70, 400, 400)"></path><path d="M10.00000270496723 444.4581039595756C33.6363669970805 409.35810298578747 33.63636699708053 344.83082846831826 80.90909558130704 339.15810103821104C128.18182416553356 333.4853736081039 104.54545987342027 409.35810298578747 151.81818845764684 427.4399216692541C199.09091704187338 445.52174035272077 175.4545527497601 384.1853750146868 222.72728133398664 393.403557088611C270.0000099182132 402.62173916253516 246.36364562609992 461.83083171427893 293.6363742103265 455.0944678910266C340.909102794553 448.3581040677743 317.27273850243967 380.63992037086985 364.54546708666624 373.19446561885417C411.8181956708928 365.7490108668385 388.18183137877946 433.1126490993613 435.45455996300603 432.7581036349796C482.72728854723255 432.4035581705979 459.0909242551194 368.93992004627376 506.36365283934583 372.1308292257091C553.6363814235724 375.32173840514434 530.0000171314591 434.88537642126977 577.2727457156857 442.33083117328545C624.5454742999121 449.7762859253011 600.909110007799 388.4399205872672 648.1818385920255 394.4671934817561C695.4545671762521 400.494466376245 671.8182028841387 468.9217410019129 719.0909314683653 460.41264985675207C766.3636600525919 451.90355871159136 766.3636600525919 399.4308299830999 790.000024344705 368.93992004627376 " transform="rotate(68.25, 400, 400)"></path><path d="M20.000002635609093 443.3181560972558C43.03030630484767 409.11815514843653 43.030306304847684 346.24542613141523 89.09091364332482 340.71815325079797C135.15152098180192 335.1908803701807 112.12121731256337 409.11815514843653 158.1818246510405 426.73633745540405C204.24243198951766 444.3545197623715 181.21212832027908 384.59088174069745 227.27273565875623 393.5727001717005C273.33334299723333 402.5545186027035 250.30303932799478 460.24542929414616 296.36364666647194 453.68179274841316C342.4242540049491 447.11815620268015 319.3939503357105 381.1363361903117 365.45455767418764 373.88179053450153C411.5151650126648 366.6272448786914 388.4848613434262 432.2636103360213 434.54546868190334 431.9181557809827C480.60607602038044 431.5727012259441 457.5757723511419 369.73633587403856 503.63637968961905 372.8454268693858C549.6969870280961 375.954517864733 526.6666833588575 433.9908831112142 572.7272906973348 441.24542876702435C618.7878980358118 448.4999744228345 595.7575943665734 388.7363364011604 641.8182017050506 394.60906383681623C687.8788090435277 400.48179127247204 664.8485053742891 467.1545203949177 710.9091127127662 458.8636110739918C756.9697200512433 450.5727017530659 756.9697200512433 399.44542760735635 780.0000237204819 369.73633587403856 " transform="rotate(66.5, 400, 400)"></path><path d="M30.00000256625097 442.17821586433047C52.42424561261484 408.8782149404801 52.424245612614854 347.6600314239068 97.27273170534255 342.2782130927794C142.1212177980703 336.8963947616521 119.69697475170642 408.8782149404801 164.54546084443416 426.0327608709485C209.39394693716193 443.18730680141687 186.96970389079806 384.9963960961026 231.81818998352583 393.74185088418454C276.66667607625357 402.4873056722664 254.2424330298897 458.6600345034079 299.09091912261744 452.2691252351942C343.9394052153452 445.8782159669805 321.51516216898125 381.63275963914805 366.363648261709 374.56912307954343C411.2121343544367 367.5054865199388 388.78789130807286 431.4145792020758 433.63637740080065 431.07821555638037C478.48486349352834 430.7418519106849 456.0606204471645 370.53275933119795 500.90910653989226 373.56003214245703C545.75759263262 376.58730495371617 523.3333495862561 433.0963974305531 568.1818356789838 440.16003399015773C613.0303217717116 447.22367054976235 590.6060787253477 389.0327598444481 635.4545648180755 394.7509418212709C680.3030509108032 400.4691237980937 657.8788078644393 465.38730741731706 702.727293957167 457.3145799206261C747.5757800498949 449.2418524239351 747.5757800498949 399.46003286100733 770.0000230962586 370.53275933119795 " transform="rotate(64.75, 400, 400)"></path><path d="M40.00000249689283 441.0382565579188C61.81818492038201 408.63825565903744 61.81818492038202 349.074617642912 105.45454976736033 343.8382538612746C149.09091461433866 338.6018900796372 127.2727321908495 408.63825565903744 170.90909703782785 425.32916521300666C214.5454618848062 442.0200747669759 192.727279461317 385.40189137802145 236.36364430829536 393.9109825231822C280.00000915527374 402.420073668343 258.18182673178455 457.07462063918337 301.8181915787629 450.85643864848896C345.45455642574126 444.63825665779456 323.636374002252 382.1291640144981 367.2727388492304 375.256436551099C410.9091036962087 368.3837090876999 389.0909212727195 430.565528994644 432.72728611969785 430.2382562582917C476.36365096667623 429.91098352193933 454.54546854318704 371.32916371487096 498.18183339016537 374.274618342042C541.8181982371439 377.220072969213 520.0000158136545 432.2018926764057 563.6363806606329 439.0746201398048C607.2727455076113 445.9473476032039 585.4545630841221 389.3291642142495 629.0909279311005 394.89280073223927C672.7272927780788 400.456437250229 650.9091103545895 463.62007536623014 694.5454752015679 455.76552969377406C738.1818400485463 447.9109840213179 738.1818400485463 399.474619041172 760.0000224720354 371.32916371487096 " transform="rotate(63, 400, 400)"></path><path d="M50.000002427534696 439.89828962211266C71.21212422814918 408.3982887482002 71.21212422814918 350.48919623252266 113.63636782937812 345.3982870003752C156.06061143060703 340.30737776822775 134.84848962999257 408.3982887482002 177.2727332312215 424.62556192567024C219.69697683245047 440.8528351031403 198.484855031836 385.80737903054575 240.90909863306496 394.0801065327854C283.3333422342939 402.35283403502507 262.12122043367947 455.48919914556427 304.5454640349084 449.44374443238917C346.9697076361373 443.39828971921406 325.7575858355228 382.6255607604536 368.18182943675174 375.94374239326004C410.6060730379807 369.2619240260665 389.39395123736625 429.7164711578177 431.81819483859516 429.3982893308085C474.2424384398241 429.0801075037993 453.0303166392097 372.12556046914943 495.4545602404387 374.9891969122324C537.8788038416676 377.85283335531534 516.666682041053 431.3073802928638 559.090925642282 437.98919866005735C601.515169243511 444.6710170272509 580.3030474428965 389.62556095465635 622.7272910441255 395.03465201381306C665.1515346453544 400.44374307296977 643.9394128447399 461.85283568574863 686.3636564459689 454.2164718375274C728.7879000471978 446.5801079893062 728.7879000471978 399.4891975919421 750.0000218478123 372.12556046914943 " transform="rotate(61.25, 400, 400)"></path><path d="M60.00000235817656 438.7583455744901C80.60606353591633 408.1583447255465 80.60606353591635 351.90379771031695 121.81818589139587 346.9583430276594C163.03030824687542 342.01288834500184 142.42424706913562 408.1583447255465 183.63636942461517 423.92198152651747C224.84849178009475 439.6856183274883 204.24243060235494 386.21288957125364 245.45455295783452 394.2492534305722C286.6666753133141 402.2856172898907 266.06061413557427 453.9038005401288 307.2727364910538 448.03107310447297C348.4848588465334 442.1583456688171 327.8787976687936 383.1219803945927 369.09092002427315 376.63107112360467C410.30304237975264 370.14016185261664 389.6969812020129 428.86743620917497 430.9091035574925 428.5583452915089C472.12122591297197 428.2492543738428 451.5151647352322 372.9219801116115 492.7272870907118 375.70379837060636C533.9394094461913 378.4856166296012 513.3333482684516 430.4128907975055 554.5454706239311 436.9038000684935C595.7575929794107 443.39470933948155 575.1515318016709 389.9219805832468 616.3636541571504 395.17652618357045C657.57577651263 400.4310717838941 636.9697153348901 460.0856188934507 678.1818376903698 452.66743686946444C719.3939600458493 445.2492548454781 719.3939600458493 399.50379903089583 740.000021223589 372.9219801116115 " transform="rotate(59.5, 400, 400)"></path><path d="M70.00000228881842 437.6184015268675C90.0000028436835 407.9184007028929 90.00000284368352 353.31839918811124 130.00000395341365 348.5183990549436C170.00000506314376 343.718398921776 150.0000045082787 407.9184007028929 190.00000561800886 423.21840112736464C230.00000672773902 438.5184015518364 210.00000617287392 386.6184001119616 250.00000728260406 394.4184003283589C290.0000083923342 402.2184005447563 270.0000078374692 452.3184019346933 310.0000089471993 446.61840177655677C350.0000100569295 440.9184016184202 330.00000950206436 383.6184000287318 370.0000106117945 377.3183998539493C410.0000117215247 371.0183996791668 390.0000111666596 428.01840126053224 430.0000122763897 427.7184012522093C470.0000133861199 427.4184012438863 450.0000128312548 373.7183997540736 490.00001394098496 376.4183998289804C530.0000150507151 379.11839990388717 510.00001449585005 429.51840130214714 550.0000156055801 435.81840147692964C590.0000167153103 442.11840165171213 570.0000161604453 390.21840021183726 610.0000172701755 395.3184003533279C650.0000183799056 400.41840049481846 630.0000178250405 458.31840210115286 670.0000189347705 451.1184019014014C710.0000200445008 443.91840170165 710.0000200445008 399.51840046984955 730.0000205993658 373.7183997540736 " transform="rotate(57.75, 400, 400)"></path><path d="M80.0000022194603 436.47844222045586C99.39394215145067 407.67844142145015 99.39394215145069 354.7329854071164 138.1818220154314 350.07843982343877C176.96970187941216 345.42389423976107 157.57576194742177 407.67844142145015 196.36364181140254 422.51480546942275C235.1515216753833 437.3511695173954 215.7575817433929 387.0238953938804 254.54546160737368 394.58753196735665C293.3333414713544 402.1511685408329 273.93940153936404 450.73298807046876 312.7272814033448 445.2057151898515C351.51516126732554 439.67844230923424 332.1212213353351 384.11480440408184 370.9091011993159 378.00571332550487C409.6969810632966 371.8966222469279 390.30304113130626 427.16935105310046 429.09092099528704 426.8784419541206C467.87880085926776 426.58753285514075 448.48486092727734 374.51480413774664 487.2727407912582 377.1329860285653C526.0606206552388 379.751167919384 506.66668072324853 428.6238965479998 545.4545605872293 434.73298762657674C584.24244045121 440.84207870515365 564.8485005192197 390.51480458163866 603.6363803832005 395.4602592642962C642.4242602471812 400.40571394695377 623.0303203151907 456.5511700500659 661.8182001791715 449.56935167454935C700.6060800431522 442.5875332990328 700.6060800431522 399.5329866500142 720.0000199751425 374.51480413774664 " transform="rotate(56, 400, 400)"></path><path d="M90.00000215010216 435.338494358136C108.78788145921784 407.4384935840992 108.78788145921786 356.14758307021344 146.3636400774492 351.6384920360257C183.93939869568052 347.1294010018379 165.15151938656484 407.4384935840992 202.7272780047962 421.8112212555727C240.30303662302757 436.18394892704623 221.51515731391189 387.42940211989105 259.0909159321433 394.7566750504461C296.6666745503746 402.08394798100124 277.8787952412589 449.14758565033605 315.45455385949026 443.79304004723804C353.0303124777216 438.4384944441401 334.2424331686059 384.6112202235237 371.81819178683725 378.69303824115224C409.3939504050686 372.7748562587808 390.6060710959529 426.32031228976047 428.1818297141843 426.0384941001237C465.7575883324157 425.756675910487 446.96970902329997 375.31121996551144 484.54546764153133 377.847583672242C522.1212262597627 380.38394737897266 503.33334695064696 427.72940323794415 540.9091055688783 433.6475852203156C578.4848641871097 439.565767202687 559.696984877994 390.81122039553185 597.2727434962254 395.60212961935633C634.8485021144568 400.3930388431809 616.060622805341 454.7839494430707 653.6363814235724 448.0203128917891C691.2121400418038 441.2566763405074 691.2121400418038 399.54758427427066 710.0000193509194 375.31121996551144 " transform="rotate(54.25, 400, 400)"></path><path d="M100.00000208074403 434.19854268111885C118.181820766985 407.19854193205106 118.18182076698501 357.5621769186132 154.54545813946694 353.19854043391535C190.90909551194886 348.8349039492175 172.72727682570792 407.19854193205106 209.09091419818986 421.1076332270254C245.45455157067184 435.0167245219997 227.27273288443087 387.8349050312044 263.6363702569128 394.9258143188384C300.00000762939476 402.01672360647234 281.8181889431538 447.562179415506 318.18182631563576 442.3803610899273C354.5454636881177 437.19854276434864 336.36364500187665 385.10763222826824 372.72728237435865 379.38035934210234C409.0909197468406 373.65308645593643 390.90910106059965 425.4712697117232 427.27273843308154 425.1985424314296C463.63637580556355 424.925815151136 445.45455711932254 376.107631978579 481.8181944918045 378.5621775012215C518.1818318642866 381.016723023864 500.00001317804544 426.8349061131913 536.3636505505274 432.5621789993572C572.7272879230094 438.2894518855231 554.5454692367684 391.1076323947278 590.9091066092504 395.74399615971925C627.2727439817324 400.38035992471066 609.0909252954914 453.0167250213783 645.4545626679733 446.47127029433153C681.8182000404553 439.92581556728476 681.8182000404553 399.56217808382985 700.0000187266962 376.107631978579 " transform="rotate(52.5, 400, 400)"></path><path d="M110.00000201138589 433.0585910041018C127.57576007475217 406.95859028000285 127.57576007475218 358.9767707670129 162.72727620148473 354.758588831805C197.87879232821726 350.5404068965971 180.30303426485096 406.95859028000285 215.45455039158355 420.40404519847806C250.60606651831608 433.84950011695327 233.03030845494982 388.2404079425178 268.18182458168235 395.09495358723063C303.33334070841494 401.9494992319435 285.75758264504867 445.976773180676 320.9090987717812 440.9676821326166C356.0606148985138 435.9585910845572 338.48485683514747 385.6040442330128 373.63637296188 380.06768044305244C408.7878890886126 374.53131665309206 391.2121310252463 424.62222713368595 426.36364715197885 424.3585907627355C461.51516327871144 424.094954391785 443.9394052153451 376.9040439916465 479.0909213420777 379.276771330201C514.2424374688103 381.6494986687554 496.6666794054439 425.94040898843843 531.8181955321766 431.4767727783988C566.9697116589091 437.0131365683592 549.3939535955428 391.4040443939237 584.5454697222754 395.8858627000821C619.6969858490079 400.3676810062405 602.1212277856416 451.24950059968586 637.2727439123742 444.922227696874C672.4242600391067 438.5949547940622 672.4242600391067 399.57677189338904 690.000018102473 376.9040439916465 " transform="rotate(50.75, 400, 400)"></path><path d="M120.00000194202775 431.9186431417819C136.96969938251934 406.7186424426519 136.96969938251937 360.39136843010994 170.90909426350248 356.31864104439194C204.84848914448565 352.245913658674 187.87879170399404 406.7186424426519 221.8181865849772 419.70046098462797C255.75758146596036 432.682279526604 238.7878840254688 388.6459146685284 272.72727890645194 395.2640966703201C306.6666737874351 401.88227867211185 289.69697634694353 444.3913707605432 323.6363712279267 439.5550069900031C357.5757661089099 434.71864321946305 340.60606866841823 386.10046005245465 374.5454635494014 380.7550053586998C408.4848584303846 375.40955066494496 391.515160989893 423.77318837034596 425.45455587087616 423.51864290873857C459.39395075185934 423.26409744713123 442.4242533113677 377.7004598194113 476.36364819235087 379.9913689738777C510.30304307333404 382.28227812834405 493.33334563284245 425.0459156783828 527.2727405138255 430.39137037213766C561.2121353948087 435.7368250658925 544.2424379543172 391.7004602078169 578.1818328353004 396.0277330551422C612.1212277162836 400.3550059024676 595.1515302757919 449.4822799926907 629.090925156775 443.3731889141137C663.0303200377582 437.26409783553675 663.0303200377582 399.5913695176455 680.0000174782498 377.7004598194113 " transform="rotate(49, 400, 400)"></path><path d="M130.00000187266963 430.77868383537026C146.3636386902865 406.47868316120923 146.3636386902865 361.80595464911517 179.09091232552026 357.87868181288707C211.81818596075402 353.951408976659 195.45454914313711 406.47868316120923 228.18182277837087 418.99686532668613C260.90909641360463 431.51504749216303 244.54545959598778 389.05140995044724 277.27273323122154 395.4332283093178C310.0000068664553 401.8150466681884 293.63637004883844 442.80595689631866 326.36364368407214 438.14232040329784C359.09091731930596 433.478683910277 342.72728050168905 386.5968644278047 375.45455413692275 381.44231883025543C408.1818277721565 376.28777323270606 391.81819095453966 422.9241381629142 424.5454645897734 422.67868361064995C457.27273822500723 422.4332290583857 440.90910140739027 378.4968642030844 473.6363750426241 380.70595517346266C506.3636486778578 382.9150461438409 490.00001186024093 424.15141092423545 522.7272854954747 429.30595652178476C555.4545591307085 434.4605021193341 539.0909223130916 391.9968645776183 571.8181959483254 396.1695919661106C604.5454695835591 400.34231935460286 588.1818327659422 447.71504794160376 620.9091064011759 441.82413868726167C653.6363800364097 435.9332294329196 653.6363800364097 399.60595569781015 670.0000168540265 378.4968642030844 " transform="rotate(47.25, 400, 400)"></path><path d="M140.00000180331148 429.63873215835315C155.75757799805368 406.238731509161 155.75757799805368 363.22054849751487 187.27273038753802 359.4387302107768C218.78788277702236 355.65691192403864 203.0303065822802 406.238731509161 234.54545897176456 418.2932772981388C266.0606113612489 430.3478230871166 250.30303516650673 389.4569128617606 281.81818755599113 395.6023675777101C313.3333399454755 401.7478222936595 297.57576375073324 441.2205506614887 329.09091614021764 436.7296414459871C360.60606852970204 432.23873223048565 344.8484923349598 387.09327643254926 376.36364472444416 382.1296399312055C407.87879711392856 377.1660034298617 392.1212209191864 422.0750955848769 423.6363733086707 421.83873194195576C455.15152569815507 421.60236829903465 439.3939495034129 379.2932762161519 470.90910189289724 381.4205490024421C502.42425428238164 383.5478217887323 486.6666780876394 423.25691379948256 518.1818304771238 428.22055030082635C549.6969828666081 433.1841868021702 533.939406671866 392.2932765768142 565.4545590613503 396.31145850647346C596.9697114508347 400.3296404361327 581.2121352560926 445.9478235199113 612.7272876455769 440.27509608980415C644.2424400350612 434.60236865969694 644.2424400350612 399.62054950736933 660.0000162298034 379.2932762161519 " transform="rotate(45.5, 400, 400)"></path><path d="M149.9999864751643 428.49878048133604C165.15150204703178 405.9987798571128 165.15150204703178 364.63514234591463 195.45453319076674 360.99877860866644C225.7575643345017 357.36241487141825 210.6060487626342 405.9987798571128 240.90907990636916 417.5896892695915C271.2121110501041 429.1805986820701 256.0605954782366 389.86241577307396 286.3636266219716 395.7715068461023C316.6666577657066 401.6805979191306 301.5151421938391 439.63514442665866 331.8181733375741 435.3169624886764C362.121204481309 430.99878055069416 346.9696889094415 387.5896884372939 377.2727200531765 382.81696103215563C407.5757511969114 378.0442336270173 392.42423562504393 421.22605300683966 422.7272667687789 420.9987802732617C453.0302979125139 420.7715075396836 437.8787823406464 380.08968822921946 468.1818134843814 382.1351428314216C498.4848446281163 384.1805974336237 483.33332905624883 422.36241667472973 513.6363601999838 427.135144079868C543.9393913437189 431.90787148500624 528.7878757718513 392.58968857601013 559.0909069155863 396.4533250468363C589.3939380593213 400.31696151766255 574.2424224874537 444.18059909821886 604.5454536311887 438.72605349234664C634.8484847749237 433.2715078864743 634.8484847749237 399.6351433169285 650.000000346791 380.08968822921946 " transform="rotate(43.75, 400, 400)"></path><path d="M159.99998640580617 427.35882880431893C174.54544135479892 405.7588282050647 174.54544135479895 366.0497361943144 203.6363512527845 362.5588270065561C232.72726115077006 359.0679178187978 218.18180620177725 405.7588282050647 247.27271609976282 416.8861012410441C276.3636259977484 428.0133742770236 261.81817104875563 390.2679186843874 290.9090809467412 395.94064611449454C319.99999084472677 401.6133735446017 305.454535895734 438.0497381918286 334.5454457937195 433.9042835313657C363.63635569170515 429.75882887090273 349.0909007427123 388.08610044203846 378.18181064069785 383.50428213310573C407.2727205386834 378.922463824173 392.72726558969066 420.3770104288024 421.81817548767617 420.15882860456753C450.90908538566174 419.9406467803326 436.363630436669 380.886100242287 465.45454033465455 382.84973666040105C494.5454502326401 384.81337307851504 479.9999952836473 421.46791954997684 509.0909051816329 426.04973785890957C538.1818150796184 430.6315561678423 523.6363601306257 392.88610057520606 552.7272700286113 396.5951915871992C581.8181799265968 400.3042825991924 567.272724977604 442.4133746765265 596.3636348755895 437.17701089488907C625.4545447735752 431.94064711325166 625.4545447735752 399.6497371264877 639.999999722568 380.886100242287 " transform="rotate(42, 400, 400)"></path><path d="M169.99998633644802 426.21887331260456C183.93938066256612 405.5188727383192 183.93938066256612 367.46432622801683 211.81816931480228 364.1188715897485C239.69695796703843 360.77341695148016 225.75756364092032 405.5188727383192 253.6363522931565 416.18250939779955C281.51514094539266 426.84614605727984 267.5757466192746 390.6734177810035 295.45453527151074 396.10978156818953C323.3333239237469 401.54614535537553 309.3939295976288 436.4643281423013 337.272718249865 432.4916007593577C365.15150690210123 428.51887337641404 351.21211257598304 388.58250863208576 379.0909012282192 384.19159941935857C406.96968988045535 379.8006902066314 393.0302955543373 419.5279640360679 420.90908420657354 419.3188731211761C448.78787285880964 419.10978220628436 434.84847853269156 381.6825084406573 462.7272671849277 383.56432667468323C490.6060558371639 385.4461449087092 476.6666615110458 420.57341861052674 504.54545016328194 424.96432782325394C532.424238815518 429.35523703598113 518.4848444894001 393.1825087597047 546.3636331416362 396.7370543128648C574.2424217938724 400.2915998660249 560.3030274677542 440.64614644013676 588.1818161199906 435.6279644827342C616.0606047722267 430.60978252533175 616.0606047722267 399.66432712134963 629.9999990983447 381.6825084406573 " transform="rotate(40.25, 400, 400)"></path><path d="M179.9999862670899 425.0789254502847C193.33331997033326 405.27892490096826 193.33331997033326 368.87892389111386 219.99998737682003 365.6789238023355C246.6666547833068 362.47892371355704 233.3333210800634 405.27892490096826 259.9999884865502 415.4789251839495C286.66665589303693 425.67892546693065 273.33332218979353 391.0789245070141 299.99998959628033 396.278924651279C326.6666570027671 401.47892479554395 313.3333232995237 434.8789257221686 339.9999907060105 431.07892561674424C366.66665811249726 427.27892551131987 353.3333244092538 389.0789244515276 379.9999918157406 384.87892433500593C406.6666592222274 380.67892421848427 393.333325518984 418.6789252727279 419.9999929254708 418.47892526717925C446.66666033195753 418.2789252616306 433.3333266287142 382.47892426842213 459.9999940352009 384.27892431835994C486.6666614416877 386.0789243682978 473.33332773844427 419.6789253004712 499.99999514493106 423.87892541699284C526.6666625514179 428.0789255335145 513.3333288481745 393.4789245735979 539.9999962546613 396.87892466792493C566.666663661148 400.278924762252 553.3333299579047 438.8789258331416 579.9999973643913 434.078925699974C606.6666647708781 429.2789255668064 606.6666647708781 399.6789247456061 619.9999984741214 382.47892426842213 " transform="rotate(38.5, 400, 400)"></path><path d="M189.99998619773174 423.93897758796487C202.72725927810043 405.0389770636174 202.72725927810046 370.2935215542109 228.1818054388378 367.2389760149224C253.63635159957516 364.1844304756339 240.90907851920647 405.0389770636174 266.3636246799438 414.7753409700994C291.8181708406812 424.51170487658146 279.09089776031254 391.48443123302474 304.5454439210499 396.4480677343685C329.99999008178725 401.4117042357123 317.2727170014186 433.29352330203585 342.72726316215596 429.6662504741308C368.18180932289334 426.0389776462257 355.4545362425246 389.57534027096943 380.909082403262 385.5662492506533C406.3636285639994 381.55715823033717 393.6363554836307 417.8298865093879 419.09090164436805 417.6389774131824C444.5454478051054 417.44806831697684 431.81817472473676 383.27534009618694 457.27272088547414 384.9935219620367C482.72726704621147 386.7117038278865 469.99999396584275 418.78443199041556 495.4545401265801 422.7935230107317C520.9090862873175 426.8026140310478 508.18181320694885 393.7753403874911 533.6363593676863 397.0207950229851C559.0909055284235 400.2662496584791 546.3636324480549 437.11170522614646 571.8181786087922 432.52988691721373C597.2727247695295 427.948068608281 597.2727247695295 399.69352236986254 609.9999978498983 383.27534009618694 " transform="rotate(36.75, 400, 400)"></path><path d="M199.99998612837362 422.799029725645C212.1211985858676 404.79902922626644 212.1211985858676 371.70811921730785 236.36362350085557 368.7990282275093C260.60604841584353 365.8899372377108 248.48483595834955 404.79902922626644 272.7272608733375 414.07175675624933C296.9696857883255 423.3444842862323 284.8484733308315 391.88993795903536 309.09089824581946 396.617210817458C333.3333231608075 401.34448367588067 321.21211070331344 431.7081208819031 345.4545356183014 428.2535753315173C369.69696053328937 424.7990297811315 357.5757480757954 390.07175609041127 381.81817299078335 386.25357416630067C406.0605979057714 382.43539224219006 393.93938544827733 416.9808477460479 418.1818103632653 416.7990295591855C442.4242352782533 416.6172113723231 430.30302282075934 384.07175592395174 454.5454477357473 385.7081196057134C478.78787265073527 387.3444832874751 466.6666601932412 417.88993868035993 490.9090851082292 421.70812060447054C515.1515100232172 425.52630252858114 503.03029756572323 394.0717562013843 527.2727224807112 397.16266537804523C551.5151473956992 400.2535745547062 539.3939349382051 435.3444846191513 563.6363598531932 430.9808481344535C587.878784768181 426.61721164975563 587.878784768181 399.708119994119 599.9999972256751 384.07175592395174 " transform="rotate(35, 400, 400)"></path><path d="M209.9999860590155 421.6590780486279C221.51513789363477 404.55907757421824 221.5151378936348 373.1227130657076 244.54544156287335 370.359076625399C267.5757452321119 367.59544018509035 256.06059339749265 404.55907757421824 279.0908970667312 413.368168727702C302.12120073596975 422.17725988118576 290.6060489013505 392.2954408703487 313.63635257058905 396.78635008585024C336.6666562398276 401.27725930135176 325.15150440520836 430.12271464707305 348.1818080744469 426.8408963742066C371.21211174368545 423.5590781013401 359.6969599090662 390.56816809515584 382.72726357830476 386.94089526725077C405.7575672475433 383.3136224393457 394.24241541292406 416.13180516801066 417.2727190821626 415.95907789049136C440.30302275140116 415.78635061297206 428.7878709167819 384.8681679370193 451.81817458602046 386.4227134346929C474.848478255259 387.9772589323665 463.3333264206397 416.9954415556071 486.3636300898783 420.6227143835122C509.39393375911686 424.24998721141725 497.8787819244976 394.3681682005802 520.9090855937362 397.3045319184081C543.9393892629748 400.240895636236 532.4242374283555 433.5772601974588 555.4545410975941 429.4318055369959C578.4848447668326 425.286350876533 578.4848447668326 399.7227138036782 589.9999966014518 384.8681679370193 " transform="rotate(33.25, 400, 400)"></path><path d="M219.99998598965735 420.5191244642622C230.90907720140194 404.31912401482145 230.90907720140194 374.53730500675874 252.7272596248911 371.91912311594C274.54544204838027 369.30094122512133 263.6363508366357 404.31912401482145 285.4545332601249 412.66457879180604C307.272715683614 421.0100335687907 296.36362447186946 392.70094187431346 318.1818068953586 396.95548744689387C339.99998931884784 401.2100330194742 329.0908981071032 428.53730650489445 350.9090805305924 425.4282155095472C372.72726295408154 422.3191245142 361.818171742337 391.0645781925518 383.6363541658261 387.62821446085223C405.4545365893153 384.1918507291527 394.5454453775707 415.28276068262477 416.36362780105986 415.1191243144486C438.18181022454905 414.9554879462724 427.2727190128045 385.6645780427382 449.0909014362936 387.13730535632374C470.90908385978287 388.61003266990923 459.9999926480382 416.1009425235056 481.8181750715274 419.5373062552051C503.63635749501657 422.97366998690467 492.727266283272 394.6645782924275 514.5454487067611 397.44639655142237C536.3636311302503 400.2282148104172 525.4545399185057 431.8100338684178 547.272722341995 427.88276103218976C569.0909047654841 423.9554881959617 569.0909047654841 399.73730570588873 579.9999959772287 385.6645780427382 " transform="rotate(31.5, 400, 400)"></path><path d="M229.99998592029922 419.379172787245C240.3030165091691 404.07917236277325 240.3030165091691 375.95189885515845 260.90907768690886 373.4791715138297C281.51513886464863 371.00644417250095 271.21210827577875 404.07917236277325 291.8181694535185 411.96099076325874C312.4242306312583 419.84280916374416 302.1212000423884 393.1064447856268 322.7272612201282 397.12462671528607C343.33332239786796 401.1428086449453 333.0302918089981 426.9519002700644 353.63635298673785 424.0155365522365C374.2424141644776 421.07917283440855 363.93938357560774 391.56099019729635 384.5454447533475 388.31553556180233C405.1515059310873 385.0700809263083 394.8484753422174 414.4337181045875 415.4545365199572 414.27917264575444C436.06059769769695 414.1246271869214 425.75756710882706 386.4609900558058 446.36362828656684 387.8518991853032C466.9696894643066 389.24280831480064 456.6666588754367 415.20644539875275 477.2727200531765 418.45190003424676C497.8787812309163 421.6973546697408 487.5757506420464 394.9609902916234 508.18181181978616 397.5882630917852C528.7878729975259 400.21553589194707 518.484842408656 430.04280944672536 539.0909035863958 426.3337184347322C559.6969647641356 422.6246274227391 559.6969647641356 399.7518995154479 569.9999953530055 386.4609900558058 " transform="rotate(29.75, 400, 400)"></path><path d="M239.99998585094107 418.2392249249252C249.69695581693628 403.83922452542237 249.69695581693628 377.3664965182555 269.09089574892664 375.03922372641665C288.484835680917 372.71195093457777 278.78786571492185 403.83922452542237 298.1818056469122 411.25740654940864C317.57574557890257 418.675588573395 307.87877561290736 393.51195151163745 327.2727155448978 397.2937697983756C346.66665547688814 401.07558808511374 336.969685510893 425.36649784993165 356.36362544288335 422.602861409623C375.7575653748737 419.8392249693144 366.0605954088785 392.0574060167382 385.4545353408689 389.0028604774497C404.8484752728592 385.9483149381612 395.15150530686407 413.5846793412475 414.5454452388544 413.43922479175757C433.93938517084484 413.29377024226767 424.24241520484964 387.2574058835706 443.63635513684005 388.5664968289799C463.03029506883036 389.87558777438926 453.3333251028352 414.3119520886971 472.72726503482556 417.3664976279856C492.1212049668159 420.4210431672741 482.4242350008208 395.25740610551657 501.8181749328112 397.73013344684534C521.2121148648016 400.2028607881741 511.5151448988063 428.27558883973023 530.9090848307967 424.78467965197194C550.3030247627871 421.2937704642137 550.3030247627871 399.76649713970437 559.9999947287822 387.2574058835706 " transform="rotate(28, 400, 400)"></path><path d="M249.99998578158295 417.09927324790806C259.0908951247034 403.59927287337416 259.0908951247035 378.78109036665523 277.2727138109444 376.5992721243063C295.45453249718537 374.4174538819574 286.3636231540649 403.59927287337416 304.5454418403059 410.55381852086134C322.72726052654684 417.5083641683485 313.63635118342637 393.91745442295087 331.8181698696674 397.4629090667678C349.9999885559083 401.00836371058483 340.90907921278784 423.7810916151016 359.09089789902885 421.1901824523123C377.2727165852698 418.59927328952296 368.18180724214926 392.55381802148275 386.36362592839026 389.6901815783998C404.54544461463126 386.82654513531685 395.45453527151074 412.7356367632102 413.6363539577517 412.5992731230634C431.81817264399274 412.46290948291664 422.7272633008722 388.0538178966381 440.90908198711315 389.2810906579594C459.0909006733542 390.50836341928067 449.9999913302337 413.4174549639443 468.1818100164746 416.28109140702725C486.36362870271563 419.1447278501102 477.27271935959516 395.5538181047125 495.45453804583616 397.87199998720826C513.6363567320772 400.19018186970396 504.54544738895663 426.5083644180378 522.7272660751976 423.2356370545144C540.9090847614386 419.962909690991 540.9090847614386 399.78109094926356 549.999994104559 388.0538178966381 " transform="rotate(26.25, 400, 400)"></path><path d="M259.9999857122248 415.9593177561937C268.4848344324706 403.3593174066287 268.4848344324706 380.1956804003577 285.4545318729622 378.1593167074987C302.4242293134538 376.12295301463973 293.93938059320794 403.3593174066287 310.90907803369953 409.8502266776167C327.8787754741911 416.34113594860474 319.3939267539453 394.3229535195669 336.3636241944369 397.6320445204628C353.3333216349285 400.94113552135866 344.8484729146827 422.1956815655744 361.8181703551743 419.7774996803043C378.7878677956659 417.35931779503426 370.30301907542 393.05022621153006 387.2727165159116 390.37749886465264C404.2424139564032 387.7047715177752 395.75756523615746 411.8865903704757 412.72726267664905 411.759317639672C429.69696011714063 411.63204490886835 421.2121113968948 388.8502260950084 438.18180883738637 389.9956806722416C455.15150627787796 391.14113524947476 446.66665755763216 412.52295402449414 463.6363549981237 415.19568137137156C480.6060524386153 417.868408718249 472.12120371836954 395.85022628921115 489.09090115886113 398.01386271287384C506.0605985993527 400.17749913653654 497.57574987910687 424.7411361816481 514.5454473195985 421.6865906423596C531.51514476009 418.6320451030711 531.51514476009 399.7956809441255 539.9999934803359 388.8502260950084 " transform="rotate(24.5, 400, 400)"></path><path d="M269.9999856428667 414.81936989387384C277.87877374023776 403.11936956927775 277.87877374023776 381.6102780634547 293.63634993497993 379.7193689200856C309.3939261297221 377.8284597767166 301.51513803235105 403.11936956927775 317.2727142270932 409.1466424637667C333.0302904218354 415.17391535825556 325.15150232446433 394.7284602455776 340.9090785192065 397.8011876035523C356.6666547139487 400.873914961527 348.78786661657756 420.6102791454416 364.54544281131973 418.3648245376908C380.30301900606196 416.1193699299401 372.42423090869084 393.5466420309719 388.181807103433 391.0648237803C403.93938329817524 388.5830055296281 396.06059520080413 411.0375516071357 411.8181713955463 410.91936978567514C427.5757475902885 410.8011879642146 419.69695949291736 389.6466419227732 435.4545356876596 390.71027831591834C451.21211188240176 391.77391470906343 443.33332378503064 411.6284607144386 459.0908999797728 414.11027896511047C474.848476174515 416.59209721578236 466.9696880771439 396.14664210310434 482.7272642718861 398.15573306793397C498.48484046662827 400.1648240327636 490.6060523692572 422.9739155746529 506.3636285639994 420.13755185959934C522.1212047587416 417.30118814454573 522.1212047587416 399.81027856838193 529.9999928561126 389.6466419227732 " transform="rotate(22.75, 400, 400)"></path><path d="M280.0000008322976 413.67941440215947C287.272728306794 402.87941410253234 287.272728306794 383.0248680971572 301.8181832557868 381.2794135032781C316.3636382047796 379.5339589093989 309.09091073028316 402.87941410253234 323.63636567927597 408.44305062052206C338.1818206282687 414.0066871385118 330.90909315377235 395.1339593421937 345.4545481027651 397.97032305724724C360.0000030517579 400.80668677230085 352.72727557726154 419.0248690959143 367.2727305262543 416.9521417656828C381.8181854752471 414.8794144354514 374.54545800075067 394.0430502210192 389.0909129497435 391.75214106655284C403.63636789873624 389.4612319120865 396.36364042423986 410.1885052144012 410.9090953732326 410.07941430228374C425.4545503222254 409.9703233901663 418.181822847729 390.44305012114353 432.7272777967218 391.4248683302005C447.2727327457146 392.4066865392575 440.0000052712182 410.7339597749884 454.545460220211 413.0248689294548C469.09091516920375 415.31577808392115 461.8181876947074 396.443050287603 476.3636426437002 398.2975957935996C490.90909759269294 400.15214129959617 483.6363701181965 421.20668733826324 498.18182506718927 418.5885054474445C512.7272800161821 415.97032355662583 512.7272800161821 399.82486856324385 520.0000074906785 390.44305012114353 " transform="rotate(21, 400, 400)"></path><path d="M290.00000076293946 412.539464632491C296.66666761456116 402.63946435783276 296.66666761456116 384.43946385290553 310.00000131780456 382.83946380851637C323.3333350210479 381.23946376412715 316.6666681694262 402.63946435783276 330.0000018726696 407.7394644993234C343.333335575913 412.83946464081396 336.6666687242913 395.5394641608557 350.0000024275347 398.13946423298813C363.3333361307781 400.7394643051206 356.6666692791564 417.4394647684329 370.0000029823998 415.5394647157207C383.3333366856432 413.63946466300854 376.66666983402143 394.5394641331124 390.00000353726483 392.43946407485157C403.33333724050823 390.33946401659074 396.66667038888653 409.33946454371255 410.0000040921299 409.23946454093823C423.33333779537327 409.1394645381639 416.6666709437516 391.2394640415597 430.00000464699497 392.1394640665286C443.33333835023836 393.03946409149756 436.66667149861667 409.8394645575842 450.00000520186006 411.93946461584505C463.33333890510346 414.0394646741059 456.66667205348176 396.73946419414756 470.00000575672516 398.4394642413111C483.33333945996856 400.13946428847464 476.66667260834686 419.4394648239194 490.0000063115902 417.0394647573356C503.3333400148336 414.6394646907518 503.3333400148336 399.8394642801517 510.00000686645524 391.2394640415597 " transform="rotate(19.25, 400, 400)"></path><path d="M300.00000069358134 411.3995148628225C306.06060692232836 402.3995146131332 306.06060692232836 385.8540596086539 318.1818193798223 384.39951411375466C330.3030318373163 382.9449686188554 324.2424256085693 402.3995146131332 336.3636380660633 407.03587837812466C348.48485052355727 411.67224214311614 342.42424429481025 395.9449689795177 354.5454567523043 398.308605408729C366.6666692097983 400.6722418379403 360.60606298105125 415.85406044095157 372.72727543854523 414.1267876657586C384.8484878960392 412.39951489056574 378.78788166729225 395.03587804520566 390.9090941247862 393.1267870831503C403.0303065822802 391.217696121095 396.9697003535332 408.49042387302393 409.0909128110272 408.3995147795928C421.21212526852116 408.3086056861615 415.1515190397742 392.03587796197587 427.2727314972682 392.8540598028567C439.39394395476216 393.67224164373755 433.33333772601515 408.94496934017997 445.4545501835091 410.85406030223527C457.5757626410031 412.76315126429057 451.51515641225615 397.0358781006921 463.63636886975013 398.5813326890226C475.7575813272441 400.1267872773531 469.6969750984971 417.6722423095756 481.81818755599113 415.49042406722674C493.93940001348506 413.3086058248778 493.93940001348506 399.8540599970595 500.0000062422321 392.03587796197587 " transform="rotate(17.5, 400, 400)"></path><path d="M309.9999929948287 410.2595612784568C315.45453860070097 402.1595610537364 315.45453860070097 387.26865154970506 326.36362981244554 385.9595606042957C337.2727210241901 384.6504696588863 331.8181754183179 402.1595610537364 342.72726663006245 406.33228844222873C353.636357841807 410.505015830721 348.18181223593473 396.3504699834824 359.0909034476793 398.4777427697726C369.9999946594239 400.6050155560628 364.5454490535516 414.2686522987729 375.4545402652962 412.7141068010993C386.36363147704077 411.1595613034257 380.9090858711685 395.5322881426016 391.81817708291305 393.8141062767518C402.7272682946576 392.09592441090206 397.27272268878534 407.64137938763804 408.18181390052996 407.55956120354995C419.0909051122745 407.4777430194619 413.63635950640224 392.8322880676948 424.5454507181468 393.56865172448755C435.45454192989143 394.3050153812803 429.9999963240191 408.0504703080785 440.90908753576366 409.7686521739283C451.8181787475083 411.48683403977805 446.363633141636 397.3322881925394 457.27272435338057 398.72319732203687C468.18181556512513 400.1141064515343 462.72726995925285 415.9050159805346 473.6363611709975 413.94137956242054C484.54545238274204 411.97774314430654 484.54545238274204 399.86865189927005 489.9999979886143 392.8322880676948 " transform="rotate(15.75, 400, 400)"></path><path d="M319.99999292547056 409.11960960143966C324.8484779084681 401.9196094016882 324.8484779084681 388.6832453981048 334.5454478744633 387.51960900218535C344.24241784045853 386.35597260626594 339.3939328574609 401.9196094016882 349.0909028234561 405.6287004136814C358.7878727894513 409.33779142567454 353.9393878064537 396.7559728947958 363.6363577724489 398.64688203816485C373.33332773844404 400.5377911815339 368.4848427554465 412.6832460639429 378.1818127214417 411.3014278437886C387.87878268743685 409.91960962363424 383.03029770443925 396.02870014734617 392.72726767043446 394.50142737770193C402.4242376364296 392.9741546080577 397.575752653432 406.7923368096008 407.2727226194272 406.71960953485586C416.9696925854224 406.6468822601109 412.1212076024248 393.6287000807623 421.81817756842 394.283245553467C431.5151475344152 394.9377910261717 426.66666255141763 407.1559731833256 436.3636325174128 408.68324595296986C446.06060248340793 410.2105187226141 441.2121175004104 397.62870019173533 450.9090874664056 398.8650638623997C460.6060574324008 400.1014275330641 455.75757244940314 414.13779155884214 465.45454241539835 412.392336964963C475.15151238139356 410.6468823710839 475.15151238139356 399.88324570882924 479.9999973643911 393.6287000807623 " transform="rotate(14, 400, 400)"></path><path d="M329.9999928561124 407.9796617391198C334.2424172162353 401.6796615643373 334.2424172162353 390.0978430612018 342.7272659364811 389.07966121477233C351.2121146567269 388.0614793683428 346.96969029660397 401.6796615643373 355.45453901684976 404.92511619983134C363.93938773709556 408.17057083532535 359.6969633769727 397.1614796208064 368.1818120972184 398.81602512125437C376.6666608174643 400.4705706217023 372.42423645734135 411.0978436438101 380.90908517758714 409.8887527011751C389.39393389783294 408.6796617585401 385.15150953771 396.525115966788 393.6363582579558 395.1887522933493C402.1212069782016 393.8523886199106 397.87878261807873 405.9432980462608 406.3636313383245 405.879661680859C414.8484800585703 405.8160253154571 410.6060556984474 394.4251159085272 419.0909044186932 394.99784319714377C427.575753138939 395.57057048576036 423.33332877881605 406.26147987327005 431.81817749906185 407.59784354670876C440.30302621930764 408.93420722014747 436.06060185918477 397.9251160056285 444.54545057943056 399.0069342174599C453.03029929967636 400.0887524292912 448.78787493955343 412.370570951847 457.2727236597992 410.8432981822028C465.757572380045 409.31602541255853 465.757572380045 399.8978433330857 469.99999674016794 394.4251159085272 " transform="rotate(12.25, 400, 400)"></path><path d="M339.9999966014515 406.83971006210265C343.6363603386997 401.4397099122891 343.6363603386997 391.51243690960155 350.90908781319615 390.639709612662C358.18181528769253 389.76698231572243 354.54545155044434 401.4397099122891 361.8181790249407 404.221528171284C369.0909064994371 407.00334643027884 365.4545427621889 397.56698253211977 372.7272702366853 398.98516438964657C379.99999771118166 400.4033462471734 376.3636339739335 409.5124374089801 383.63636144842985 408.4760737438644C390.9090889229263 407.43971007874865 387.27272518567804 397.0215279715326 394.5454526601745 395.8760733942994C401.81818013467085 394.7306188170662 398.18181639742266 405.09425546822354 405.45454387191904 405.03971001216485C412.7272713464154 404.9851645561061 409.09090760916723 395.2215279215947 416.36363508366367 395.7124370261232C423.63636255816004 396.2033461306517 419.99999882091186 405.36698274851716 427.27272629540823 406.51243732575034C434.5454537699046 407.6578919029835 430.9090900326564 398.22152800482445 438.1818175071528 399.14880075782276C445.4545449816492 400.07607351082106 441.818181244401 410.60334653015457 449.09090871889737 409.2942555847452C456.3636361933938 407.98516463933584 456.3636361933938 399.9124371426449 459.999999930642 395.2215279215947 " transform="rotate(10.5, 400, 400)"></path><path d="M349.9999965320934 405.6997583850856C353.0302996464669 401.1997582602409 353.0302996464669 392.9270307580013 359.0909058752139 392.19975801055165C365.1515121039609 391.472485263102 362.1212089895874 401.1997582602409 368.18181521833435 403.5179401427367C374.24242144708137 405.8361220252324 371.21211833270786 397.97248544343313 377.2727245614549 399.1543036580388C383.3333307902019 400.33612187264447 380.3030276758284 407.9270311741501 386.36363390457535 407.06339478655366C392.4242401333223 406.1997583989572 389.39393701894886 397.51793997627715 395.4545432476958 396.5633944952495C401.51514947644284 395.60884901422185 398.48484636206933 404.2452128901863 404.54545259081635 404.1997583434707C410.6060588195633 404.1543037967551 407.57575570518986 396.01793993466225 413.6363619339368 396.42703085510266C419.6969681626838 396.8361217755431 416.6666650483103 404.4724856237643 422.7272712770573 405.4270311047919C428.7878775058043 406.38157658581963 425.7575743914308 398.5179400040204 431.8181806201778 399.2906672981856C437.8787868489248 400.06339459235085 434.8484837345513 408.8361221084621 440.9090899632983 407.7452129872877C446.96969619204526 406.6543038661132 446.96969619204526 399.92703095220406 449.9999993064188 396.01793993466225 " transform="rotate(8.75, 400, 400)"></path><path d="M359.9999964627353 404.55980670806844C362.42423895423406 400.95980660819276 362.42423895423406 394.341624606401 367.27272393723166 393.7598064084413C372.12120892022926 393.1779882104816 369.69696642873043 400.95980660819276 374.54545141172804 402.8143521141893C379.39393639472564 404.66889762018593 376.9696939032268 398.37798835474655 381.8181788862245 399.3234429264311C386.666663869222 400.26889749811556 384.24242137772325 406.34162493932007 389.09090636072085 405.6507158292429C393.9393913437184 404.9598067191657 391.5151488522196 398.0143519810217 396.36363383521723 397.2507155961996C401.2121188182148 396.4870792113775 398.787876326716 403.396170312149 403.6363613097136 403.35980667477656C408.4848462927112 403.32344303740405 406.06060380121244 396.8143519477298 410.90908878421 397.14162468408216C415.7575737672076 397.4688974204345 413.3333312757088 403.57798849901144 418.18181625870636 404.34162488383356C423.03030124170397 405.1052612686557 420.6060587502052 398.8143520032163 425.4545437332028 399.4325338385485C430.3030287162004 400.0507156738807 427.87878622470157 407.06889768676973 432.7272712076992 406.1961703898302C437.5757561906968 405.32344309289056 437.5757561906968 399.94162476176325 439.99999868219555 396.8143519477298 " transform="rotate(7, 400, 400)"></path><path d="M370.0000002080744 403.4198531237027C371.8181820766985 400.7198530487959 371.8181820766985 395.75621654745214 375.4545458139467 395.31985289898233C379.0909095511949 394.8834892505126 377.2727276825708 400.7198530487959 380.909091419819 402.1107621782934C384.5454551570672 403.5016713077908 382.7272732884431 398.7834893587113 386.3636370256913 399.49258028747465C390.00000076293946 400.2016712162381 388.18181889431537 404.7562167971414 391.81818263156356 404.23803496458356C395.45454636881175 403.71985313202566 393.63636450018765 398.51076207841766 397.2727282374359 397.93803478980107C400.9090919746841 397.3653075011845 399.09091010605994 402.54712582676314 402.7272738433081 402.5198530987338C406.3636375805563 402.49258037070445 404.5454557119323 397.6107620534487 408.18181944918047 397.856216605713C411.81818318642866 398.1016711579772 410.00000131780456 402.6834894669099 413.63636505505275 403.25621675552657C417.27272879230094 403.8289440441431 415.45454692367684 399.1107620950636 419.09091066092503 399.57439847156274C422.7272743981732 400.0380348480619 420.9090925295491 405.30167135772865 424.5454562667973 404.64712588502397C428.18182000404556 403.9925804123193 428.18182000404556 399.9562166639738 430.0000018726696 397.6107620534487 " transform="rotate(5.25, 400, 400)"></path><path d="M380.00000013871625 402.2799033540342C381.21212138446566 400.47990330409635 381.21212138446566 397.17081230320053 383.63636387596443 396.8799032042207C386.06060636746327 396.5889941052408 384.84848512171385 400.47990330409635 387.2727276132126 401.40717605709466C389.69697010471145 402.33444881009297 388.48484885896204 399.1889941773733 390.90909135046087 399.66172146321554C393.33333384195964 400.1344487490578 392.1212125962103 403.17081246966006 394.54545508770906 402.82535791462146C396.96969757920783 402.47990335958286 395.7575763334585 399.00717599051086 398.18181882495725 398.6253577980998C400.606061316456 398.24353960568874 399.39394007070666 401.6980851560745 401.81818256220544 401.6799033373883C404.2424250537042 401.66172151870205 403.03030380795485 398.4071759738649 405.4545462994536 398.57081234204105C407.8787887909524 398.73444871021724 406.66666754520304 401.7889942495057 409.0909100367018 402.1708124419168C411.5151525282006 402.55263063432784 410.30303128245123 399.40717600160815 412.72727377395006 399.71626691927423C415.15151626544883 400.0253578369403 413.9393950196994 403.53444884338484 416.36363751119825 403.0980851949151C418.787880002697 402.6617215464453 418.787880002697 399.9708123808816 420.00000124844644 398.4071759738649 " transform="rotate(3.5, 400, 400)"></path><path d="M390.0000000693581 401.1399516770171C390.60606069223286 400.2399516520482 390.60606069223286 398.58540615160024 391.8181819379822 398.43995160211034C393.03030318373163 398.2944970526204 392.4242425608569 400.2399516520482 393.6363638066063 400.7035880285473C394.8484850523557 401.16722440504645 394.24242442948105 399.59449708868664 395.4545456752304 399.83086073160774C396.6666669209798 400.0672243745289 396.06060629810514 401.58540623483003 397.27272754385456 401.41267895731073C398.4848487896039 401.23995167979143 397.87878816672924 399.50358799525543 399.0909094124786 399.3126788990499C400.303030658228 399.12176980284437 399.69697003535333 400.84904257803726 400.90909128110275 400.83995166869414C402.1212125268521 400.830860759351 401.5151519039774 399.20358798693246 402.7272731497268 399.28540617102055C403.9393943954762 399.36722435510865 403.3333337726015 400.8944971247529 404.54545501835094 401.08540622095836C405.7575762641003 401.27631531716395 405.1515156412256 399.7035880008041 406.36363688697503 399.85813345963714C407.57575813272445 400.01267891847016 406.9696975098497 401.76722442169245 408.1818187555991 401.5490425974575C409.3939400013485 401.33086077322264 409.3939400013485 399.9854061904408 410.0000006242232 399.20358798693246 " transform="rotate(1.75, 400, 400)"></path></g></svg>